<?xml version="1.0" encoding="UTF-8"?>
<svg width="46px" height="20px" viewBox="0 0 46 20" version="1.1" xmlns="http://www.w3.org/2000/svg" xmlns:xlink="http://www.w3.org/1999/xlink">
    <!-- Generator: Sketch 57.1 (83088) - https://sketch.com -->
    <title>logo/24+</title>
    <desc>Created with Sketch.</desc>
    <g id="logo/24+" stroke="none" stroke-width="1" fill="none" fill-rule="evenodd">
        <g id="24+">
            <path d="M40,3 L40,9 L46,9 L46,11 L40,11 L40,17 L38,17 L38,10.999 L32,11 L32,9 L38,8.999 L38,3 L40,3 Z" id="Combined-Shape" fill="#F7963E"></path>
            <path d="M-6.95621338e-12,18.9085546 C2.7070808,16.3126714 4.82380839,13.9257729 6.35024628,11.7477876 C7.87668418,9.56980229 8.63989168,7.4139733 8.63989168,5.28023599 C8.63989168,4.07079041 8.41759823,3.06785059 7.97300467,2.27138643 C7.52841111,1.47492227 6.93068873,1.07669617 6.1798196,1.07669617 C5.73522604,1.07669617 5.41413551,1.13077625 5.21653837,1.23893805 C4.94978223,1.54375767 4.48790585,2.35988201 3.83089537,3.68731563 C3.17388488,5.0147559 2.70212879,5.76696077 2.41561294,5.9439528 C1.79318195,5.90462124 1.24979797,5.70305 0.785444698,5.33923304 C0.321091423,4.97541608 0.0889182677,4.56244086 0.0889182677,4.10029499 C0.0889182677,3.09734012 0.775558024,2.1632295 2.14885814,1.2979351 C3.52215825,0.432640708 4.93989645,0 6.40211527,0 C8.20024923,0 9.67726569,0.447389823 10.8332089,1.34218289 C11.9891522,2.23697596 12.5671152,3.52014897 12.5671152,5.19174041 C12.5671152,6.7060056 12.0904192,8.08750605 11.137013,9.33628319 C10.1836068,10.5850603 8.50158643,12.2566267 6.09090134,14.3510324 L3.60118984,16.6666667 C4.51013668,16.4405102 5.32027279,16.33235 6.03162249,16.3421829 C6.43669663,16.3421829 7.16038529,16.3815139 8.20271019,16.460177 C9.2450351,16.5388401 9.97860347,16.5781711 10.4034373,16.5781711 C10.8875503,16.5781711 11.3271973,16.352018 11.7223916,15.899705 C12.1175859,15.447392 12.5473532,14.7394345 13.0117065,13.7758112 L13.960168,14.0117994 C13.4167759,16.2045341 12.9104408,17.750733 12.4411476,18.6504425 C11.9718544,19.550152 11.4358802,20 10.8332089,20 C10.1811384,20 8.92888531,19.894298 7.07641214,19.6828909 C5.22393896,19.4714837 4.0457837,19.3657817 3.541911,19.3657817 C3.15659658,19.3657817 2.69719012,19.4001963 2.16367785,19.4690265 C1.63016557,19.5378568 1.19051854,19.6017696 0.844723543,19.660767 L0.326033648,19.7787611 L-6.95621338e-12,18.9085546 Z M15.4124997,13.8938053 C18.6926122,7.10911062 20.8957873,2.89086372 22.022091,1.23893805 C22.4864442,0.432641003 23.2175427,0.0294985251 24.2154082,0.0294985251 C25.7764256,0.0294985251 26.7545168,0.231069764 27.1497111,0.634218289 C27.0509125,0.899706342 26.7989799,1.23893599 26.3939058,1.6519174 C22.5901609,5.49657773 19.4533534,9.41492596 16.9833891,13.4070796 L23.7856366,13.4070796 L23.7856366,8.39233038 C24.8823007,7.87118717 25.8850912,7.5712885 26.794038,7.49262537 L27.4312856,7.64011799 L27.4312856,13.4070796 L30.2173913,13.4070796 L30.2173913,14.7935103 L27.4312856,14.7935103 L27.4312856,14.9852507 C27.4312856,16.2733594 27.451045,17.114059 27.4905644,17.5073746 C27.5300839,17.9006903 27.6288809,18.1563416 27.7869587,18.2743363 L29.8320788,18.5988201 C29.8715982,18.7954779 29.8913577,19.1494566 29.8913577,19.660767 L20.5697593,19.660767 L20.6586775,18.5988201 L23.3855044,18.2743363 C23.5435821,18.1366758 23.649789,17.8711917 23.7041282,17.4778761 C23.7584674,17.0845605 23.7856366,16.2831919 23.7856366,15.0737463 L23.7856366,14.7935103 L15.6199757,14.7935103 L15.4124997,13.8938053 Z" id="24" fill="#0F0F0F" fill-rule="nonzero"></path>
        </g>
    </g>
</svg>