<?xml version="1.0" encoding="UTF-8"?>
<svg width="356px" height="130px" viewBox="0 0 356 130" version="1.1" xmlns="http://www.w3.org/2000/svg" xmlns:xlink="http://www.w3.org/1999/xlink">
    <title>Combined Shape</title>
    <g id="Symbols" stroke="none" stroke-width="1" fill="none" fill-rule="evenodd">
        <g id="Group-6" transform="translate(0.000066, 0.000000)" fill="#FFFFFF">
            <path d="M175.039227,31.4987832 C178.136188,31.4987832 181.145224,32.2519532 183.953562,33.6128272 C199.613262,39.780065 214.459179,60.8346132 214.853885,80.7661055 C216.575587,102.503483 206.841495,129.735079 186.433855,129.735079 C172.886263,129.735079 160.984395,120.773838 153.707181,106.368624 C148.816601,98.4323455 145.793707,87.7482407 145.793707,75.9937157 C145.793707,51.4793224 158.903109,31.4987832 175.039227,31.4987832 Z M24.4290067,33.0168467 C26.5970228,33.0168467 28.6673181,33.2429413 30.6007087,33.6829285 C44.4371624,34.9717872 54.4445852,42.8592577 58.2095839,55.5294059 C61.9545128,68.1048097 62.756349,82.1300898 51.4826174,94.8083726 L60.8071893,105.210876 L60.8071893,129.227143 L8.87801879,129.227143 L-5.68434189e-14,117.572148 L-5.68434189e-14,112.18392 L0.282649664,112.047784 C10.6995919,106.354747 18.1304349,98.9285573 22.2958738,90.2063313 C16.2422013,87.952324 12.3044591,84.499178 8.12205638,78.8020734 C6.63497987,76.7997608 5.46949799,74.8319007 4.5568,72.894665 C2.65231946,70.0508977 1.38601074,66.3718965 1.29521879,61.9734599 C1.17527785,55.0525736 3.31748993,45.3941486 9.63398121,39.0479492 C13.553804,35.0930887 18.4379329,33.0517777 24.1642765,33.0168467 L24.4290067,33.0168467 Z M109.254011,33.6329245 L119.681944,43.8401971 L119.681944,91.5183976 L120.920298,93.0374181 L120.968083,93.0374181 L120.968083,93.0974707 L121.542462,93.7824535 L130.631213,104.80247 L130.631213,109.151621 L122.389216,109.151621 L122.389216,113.534984 L130.417374,123.914998 L130.417374,128.802229 L89.9848537,128.802229 L78.4903544,117.572148 L78.4903544,112.802868 L79.0274604,112.802868 C81.8816725,112.802868 83.4387544,112.652856 85.4359383,111.235758 C86.3656,110.582835 87.012851,109.967714 87.5329933,109.256892 L69.1297047,109.256892 L58.9385477,98.6433671 L58.9746255,98.6433671 L58.9746255,92.7694542 L59.1304054,92.6093936 C67.3322631,83.4211017 71.3070389,77.6139405 76.8224107,66.7147468 C82.8194577,54.8494474 85.2531597,47.6562906 87.6319087,34.6408996 L87.724851,34.1138241 L88.2440376,34.210961 C91.7794282,34.9459478 93.8585638,35.1720423 97.1961235,35.1720423 L97.887098,35.1720423 C102.10749,35.1258664 104.523272,34.8349341 108.605804,33.8087758 L109.254011,33.6329245 Z M345.263374,33.5958402 L355.790223,44.8752078 L355.790223,70.4707877 L350.146787,70.4707877 L339.758754,60.0864675 C339.758754,60.0864675 339.538942,53.6373891 336.693809,51.3422302 C334.077101,49.2344512 331.009772,49.0801688 330.33182,49.0727881 L330.217326,49.0728979 C330.202432,49.0731376 330.194779,49.0733891 330.194779,49.0733891 L330.295605,60.7245566 L334.853361,60.7245566 L346.027221,73.3990114 L346.027221,94.3202954 L356,103.131524 L356,128.470145 L301.499267,128.470145 L290.853434,117.149865 L290.853434,112.614815 L291.35494,112.610748 C293.542787,112.473895 294.883162,111.907821 296.458164,110.438804 C298.301479,108.729817 298.992693,107.102654 298.893777,104.607718 L298.893777,48.9913252 L290.43603,38.3859348 L290.43603,33.5958402 L345.263374,33.5958402 Z M258.852617,33.1838457 C260.540153,33.3467773 262.232945,33.7480054 263.874846,34.3877693 C275.969766,37.0700405 284.664768,46.4482996 285.961181,58.8504839 C286.972795,68.4775667 284.236373,75.5030068 276.85451,82.1300898 C279.797364,84.3070575 281.266282,85.908142 283.135879,88.9921197 C284.883624,91.8272738 285.577466,93.6522996 286.187683,96.8855716 L286.187683,115.174828 L292.249718,123.291025 L292.249718,128.070114 L273.161428,128.070114 L261.028518,123.517119 L261.028518,127.665297 L224.449877,127.665297 L214.12277,117.149865 L214.095772,117.149865 L214.095772,112.627974 L214.588199,112.610748 C217.230722,112.378672 218.881463,111.502765 220.496365,109.467674 C221.807353,107.822807 221.908419,106.294694 222.034094,104.349563 C222.053925,104.010541 222.071128,103.665777 222.126081,103.278425 L222.126081,49.1662195 L213.44876,38.1880721 L213.44876,33.1838457 L258.852617,33.1838457 Z M175.039227,32.5519771 C159.497318,32.5519771 146.856212,52.0353476 146.856212,75.9937157 C146.856212,99.9556726 159.497318,119.455073 175.039227,119.455073 C190.604311,119.455073 203.249479,99.9556726 203.249479,75.9937157 C203.249479,52.0353476 190.604311,32.5519771 175.039227,32.5519771 Z M24.4290067,34.060949 L24.1912752,34.060949 C18.7308564,34.1138241 14.1279436,36.0228278 10.3820591,39.7559004 C4.29422013,45.8791155 2.25092349,55.2423017 2.3605906,61.9495346 C2.54360805,71.9718642 9.05984161,78.1680516 15.0217664,78.1680516 C20.272647,78.1680516 23.890706,73.7098017 24.7295758,66.2917466 C25.5596054,58.6973616 23.8727866,55.0853514 22.3228725,53.4115338 C21.2202282,52.2231616 19.7981396,51.5862687 18.1944671,51.5862687 C15.4231624,51.5862687 12.405047,53.4115338 10.0893745,56.4354589 L9.59790336,57.1123071 L9.19746309,56.3864119 C7.56464161,53.4732612 8.12994094,47.9981838 10.4448966,44.2201316 C11.7941128,42.0491453 14.2646094,39.4099398 18.5578738,39.4099398 L18.7757745,39.4099398 C20.8458309,39.4510914 22.6143624,40.2860862 24.0366899,41.8871707 C29.9066282,48.5982316 28.3017611,67.8205765 26.8077557,78.6570858 C24.910443,92.7694542 16.0164161,104.551733 1.05748725,112.788752 L1.05748725,116.535702 L49.2207034,116.535702 L49.2207034,94.0812812 L46.3316081,94.0812812 C46.0859919,95.8802283 45.3379141,97.1233896 43.8068752,98.3426255 C41.9293933,99.8176234 40.4705101,99.8176234 38.0188886,99.6824451 L22.9978389,99.6824451 L24.7835732,98.7285414 C40.0060376,90.4692709 48.8111839,77.9079831 49.0030416,64.2205289 C49.1478309,54.2084872 46.2317369,45.7381952 40.7899544,40.3760455 C36.5786416,36.1859987 31.0642255,34.060949 24.4290067,34.060949 Z M108.205364,34.9768115 C104.395447,35.9060721 101.988744,36.1649444 97.9052564,36.1998754 L97.1961235,36.1998754 C93.9505503,36.1998754 91.8523007,36.0000987 88.5718443,35.3560283 C86.2098201,48.1450855 83.7402792,55.3743696 77.7523114,67.173635 C72.2187812,78.108956 68.2370765,83.9591829 60.0421477,93.1584804 L60.0421477,97.6303678 L89.537345,97.6303678 L89.5103463,107.691696 C88.7455436,109.676782 87.8416859,110.803666 86.0640752,112.062618 C83.8960591,113.616809 82.090494,113.82472 79.5569208,113.830941 L79.5569208,116.535702 L119.689828,116.535702 L119.689828,113.212949 L116.538153,113.212949 C114.24924,113.212949 112.617374,113.116769 110.795801,111.652777 C109.254011,110.438804 108.542728,109.279621 108.205364,107.39861 L108.205364,97.4193462 L119.920631,97.4193462 L119.920631,94.0812812 L108.205364,94.0812812 L108.205364,34.9768115 Z M258.806744,34.1870356 L214.507203,34.2018694 L214.507203,37.0989901 C214.770977,37.0989901 215.017549,37.0700405 215.306172,37.0700405 C218.226328,37.0700405 220.222556,37.9179549 221.771514,39.8109287 C222.911909,41.2182178 222.955871,42.4240555 222.99386,43.8480924 C223.019664,44.5010153 223.038779,45.233131 223.173533,46.0743464 L223.173533,103.339674 C223.13865,103.736596 223.13865,104.090691 223.094687,104.404592 C222.955871,106.444706 222.819922,108.194607 221.334279,110.101696 C219.628346,112.241819 217.824693,113.265824 215.162577,113.577811 L215.162577,116.140933 L249.882612,116.140933 L249.882612,113.414879 C247.075468,113.357697 245.032172,112.342784 243.246677,110.084949 C241.633925,107.997701 241.633925,106.11669 241.633925,103.736596 L241.633925,76.8468937 L243.28371,76.7997608 L244.450148,76.7997608 C247.120387,76.7997608 250.174341,76.9971449 252.014789,78.8300661 C253.927393,80.7510325 254.293667,83.4211017 254.594475,85.5423234 L254.402617,105.83772 C254.450403,108.267818 254.886921,109.703818 256.254056,111.798961 C257.831925,114.163025 259.297976,115.319815 261.977294,116.334011 L281.528145,116.334011 L281.528145,114.037895 L281.513093,114.037895 C279.287973,114.037895 277.583235,113.281854 276.025436,111.588896 C274.35582,109.746883 274.35582,108.18073 274.392615,105.778864 L274.392615,89.4074638 C273.892303,86.2751569 273.069442,84.4061084 271.020411,81.8159499 C268.668421,78.8731317 266.663114,77.4189489 263.03717,76.1748306 L261.831788,75.7669034 L262.971944,75.2259512 C271.266983,71.2849674 276.005605,66.5398525 275.689028,53.8613304 C275.377468,41.9850253 266.953648,34.9768115 258.806744,34.1870356 Z M344.196808,34.6327649 L291.474642,34.6327649 L291.474642,37.3238884 C294.247141,37.3238884 296.279208,38.2761174 298.080711,40.4272457 C299.603866,42.2362415 299.724523,43.7662677 299.878392,45.8791155 L299.933345,46.7511945 L299.933345,104.601737 C300.06117,107.325638 299.24022,109.279621 297.171119,111.192692 C295.530413,112.717694 294.082043,113.391911 291.929079,113.577811 L291.929079,116.140933 L344.415426,116.140933 L344.415426,93.8815045 L342.399366,93.8815045 C341.963565,99.3233256 340.268145,102.855664 336.220497,106.816506 C331.716499,111.216857 327.278685,113.081838 321.335635,113.081838 C320.616467,113.081838 319.885353,113.064851 319.085667,113.004798 L318.612115,112.980873 L318.612115,77.2088843 L319.173592,77.2251535 C320.170153,77.3088923 321.117017,77.2758753 321.974523,77.253864 C324.39843,77.1899833 326.312945,77.2088843 327.953651,78.6240688 C329.6204,80.0839937 330.377318,81.4020413 330.724717,83.4840254 L330.724717,90.5554022 L334.442886,90.5554022 L334.442886,62.0806455 L331.608744,62.0806455 L331.608744,65.295495 C331.398011,67.6578841 330.724717,69.1376671 329.056056,70.8387596 C326.841211,73.1427709 324.362591,73.3226895 321.770958,73.3226895 L320.542639,73.3226895 C320.097281,73.2839304 319.612021,73.2839304 319.157345,73.2839304 L318.612115,73.2839304 L318.612115,38.1880721 L319.10956,38.1560121 C324.80986,37.836848 328.571992,38.9749769 333.139783,42.4240555 C338.620271,46.6361136 341.015028,51.4824327 340.933077,58.1195644 L344.196808,58.1195644 L344.196808,34.6327649 Z M175.238969,37.3619297 C178.52062,37.3619297 181.181063,40.1889492 181.181063,43.6810935 L181.181063,43.6810935 L181.181063,108.020669 C181.181063,111.520948 178.52062,114.363758 175.238969,114.363758 C171.946566,114.363758 169.276089,111.520948 169.276089,108.020669 L169.276089,108.020669 L169.276089,43.6810935 C169.276089,40.1889492 171.946566,37.3619297 175.238969,37.3619297 Z M331.207348,91.6052466 L330.194779,91.6052466 L330.194779,110.019632 C332.01014,109.080562 333.740682,107.777827 335.482693,106.086783 C336.865836,104.70964 337.96203,103.415757 338.817863,102.041485 C337.204395,100.022664 333.194497,94.9452256 331.207348,91.6052466 Z M89.537345,52.3982952 L89.537345,94.0812812 L65.4727007,94.0812812 L65.4727007,93.5683216 C70.2951866,86.6192034 72.802,82.5971126 76.9674389,75.2848076 C81.9366255,66.5836359 84.4604027,61.5466317 88.462894,52.4093008 L88.462894,52.3982952 L89.537345,52.3982952 Z M88.462894,79.6459206 L80.951055,93.0374181 L88.462894,93.0374181 L88.462894,79.6459206 Z M244.160614,38.6553738 C247.295062,38.6235466 250.493603,38.7002154 252.361471,40.5911344 C254.293667,42.5542094 254.669259,45.5501419 254.960988,47.7981679 L254.960988,47.7981679 L254.960988,64.0626216 C254.669259,66.9736191 254.04829,69.3218923 251.914918,71.0437998 C249.765507,72.8612004 247.089618,72.9742276 243.392354,72.9790834 L242.584269,72.97905 L242.584269,72.97905 L242.168164,72.9788822 L242.168164,38.673996 C242.602869,38.673996 243.044981,38.6687506 243.490435,38.6632329 Z M31.231132,1.43448633 C33.1367382,1.43448633 36.0871695,1.67302595 37.3470705,1.88256027 L37.3470705,1.88256027 L37.5007984,2.06216111 C37.6545264,3.31611843 37.7772223,5.4070528 37.8080157,7.40888288 L37.8080157,7.40888288 L37.2243745,7.4390484 C36.1788333,5.3780475 34.949487,3.73518706 33.4749875,2.38980503 C32.7065863,2.18119888 32.0300877,2.09116642 31.1392294,2.09116642 C29.1106885,2.09116642 27.7588849,3.13651758 27.7588849,4.92997356 C27.7588849,6.72226932 28.8652966,7.4390484 32.7984889,8.99280454 C36.5170826,10.4862296 38.4226888,11.8306835 38.4226888,15.1166364 C38.4226888,19.1202966 35.1650403,21.3606663 30.8628055,21.3606663 C29.0488631,21.3606663 26.7441371,21.211463 24.4702043,20.7633891 C24.1629871,18.373584 23.9784658,16.8497614 23.9784658,14.6685625 L23.9784658,14.6685625 L24.593139,14.5792261 C25.6377253,16.7304916 26.897865,18.4928538 28.4033966,20.3153151 C29.2954485,20.6139537 30.0328176,20.6740527 30.8928827,20.6740527 C33.0448356,20.6740527 34.5813992,19.5384371 34.5813992,17.2978353 C34.5813992,15.3261707 33.0140422,14.5191272 29.8172643,13.3844397 C25.730344,11.9200198 23.9784658,10.187591 23.9784658,7.31977859 C23.9784658,3.88439035 27.3588102,1.43448633 31.231132,1.43448633 Z M69.4676233,5.88529226 C72.6942398,5.88529226 75.5527685,7.14017775 75.5527685,10.187591 C75.5527685,10.9043701 75.4599111,11.4717139 75.2145192,11.7413472 C75.0299979,11.860617 74.8153994,11.9200198 74.5382593,11.9200198 C72.172424,11.9200198 69.8975365,11.7705845 67.4701145,11.7705845 C67.4701145,11.7705845 67.4390825,12.0692231 67.4390825,12.2787575 C67.4390825,15.0574656 69.0685035,17.7760748 72.0487733,17.7760748 C73.3707384,17.7760748 74.4153247,17.6266394 75.4300726,17.3280008 L75.4300726,17.3280008 L75.5838005,17.6266394 C74.3845314,19.986511 72.7870972,21.3005673 69.6211126,21.3005673 C65.6263337,21.3005673 62.5522516,18.2241487 62.5522516,13.9817169 C62.5522516,9.14200783 65.9335509,5.88529226 69.4676233,5.88529226 Z M47.0412424,5.88529226 C51.0054667,5.88529226 54.1712126,8.8132037 54.1712126,13.4735439 C54.1712126,18.2540822 50.4824574,21.3005673 46.5495038,21.3005673 C42.799878,21.3005673 39.3577082,18.4028214 39.3577082,13.6830783 C39.3577082,9.32160867 42.8306714,5.88529226 47.0412424,5.88529226 Z M60.5826716,0 L61.1663128,0.0600989905 C61.1663128,0.0600989905 61.0625195,1.80755255 61.0106229,3.65178956 L60.99882,4.11390989 C60.9882785,4.57613604 60.9817915,5.03581391 60.9817915,5.46715179 L60.9817915,5.46715179 L60.9817915,18.1048789 C60.9817915,19.8370757 61.0436168,20.0756153 61.2890087,20.2259788 L61.2890087,20.2259788 L62.0574099,20.4345849 C62.0574099,20.4345849 62.1192352,20.6740527 62.1192352,20.9726913 L62.1192352,20.9726913 L54.6510157,20.9726913 C54.6510157,20.6740527 54.7118863,20.4345849 54.7118863,20.4345849 L54.7118863,20.4345849 L55.5110808,20.2259788 C55.7576662,20.0756153 55.8185367,19.92618 55.8185367,18.1048789 L55.8181253,3.98241785 C55.8112388,2.13269995 55.7171593,1.90350656 55.4802874,1.67302595 L55.4802874,1.67302595 L54.6820478,1.43448633 C54.6820478,1.16578119 54.7429183,0.986412388 54.7429183,0.986412388 C54.7429183,0.986412388 57.6623176,0.149435328 60.5826716,0 L60.5826716,0 Z M17.5510133,0 L18.1346545,0.0600989905 C18.1346545,0.0600989905 18.0226144,1.95620746 17.9735968,3.88270386 L17.9631323,4.3446912 C17.9555696,4.72857478 17.951088,5.10770356 17.951088,5.46715179 L17.9514434,18.3224625 C17.9567317,19.8576516 18.0226692,20.0821528 18.2583052,20.2259788 L18.2583052,20.2259788 L19.0267064,20.4345849 C19.0267064,20.4345849 19.0875769,20.6740527 19.0875769,20.9726913 L19.0875769,20.9726913 L11.6193574,20.9726913 C11.6193574,20.6740527 11.6811828,20.4345849 11.6811828,20.4345849 L11.6811828,20.4345849 L12.4803773,20.2259788 C12.7257691,20.0756153 12.7878332,19.92618 12.7878332,18.1048789 L12.7874177,3.98241785 C12.7804647,2.13269995 12.6855377,1.90350656 12.4495839,1.67302595 L12.4495839,1.67302595 L11.6501507,1.43448633 C11.6501507,1.16578119 11.7122148,0.986412388 11.7122148,0.986412388 C11.7122148,0.986412388 14.6316141,0.149435328 17.5510133,0 L17.5510133,0 Z M10.7712278,1.85239475 C10.7712278,2.27053522 10.7094024,2.44990402 10.7094024,2.44990402 L10.7094024,2.44990402 L9.29553471,2.68844364 C8.95728543,2.9873143 8.86562155,3.43538824 8.86562155,6.42363071 L8.8659129,16.6829357 C8.87179194,19.4177542 8.9681967,19.8467092 9.29553471,20.1357143 L9.29553471,20.1357143 L10.7094024,20.3744859 C10.7094024,20.3744859 10.7712278,20.5538547 10.7712278,20.9726913 L10.7712278,20.9726913 L1.64303261,20.9726913 C1.64303261,20.5538547 1.70485799,20.3744859 1.70485799,20.3744859 L1.70485799,20.3744859 L3.11848695,20.1357143 C3.45673624,19.8370757 3.54863883,19.3890017 3.54863883,16.4016874 L3.54834675,6.14229546 C3.54245329,3.4066355 3.44582497,2.97767331 3.11848695,2.68844364 L3.11848695,2.68844364 L1.70485799,2.44990402 C1.70485799,2.44990402 1.64303261,2.27053522 1.64303261,1.85239475 L1.64303261,1.85239475 Z M46.7340251,6.512735 C45.0427787,6.512735 44.6436589,10.0383877 44.6436589,13.2350043 C44.6436589,16.8198279 45.0427787,20.6139537 46.979417,20.6139537 C48.7315339,20.6139537 48.9160553,16.9690312 48.9160553,13.8023481 C48.9160553,10.2469939 48.5159806,6.512735 46.7340251,6.512735 Z M69.2828633,6.42363071 C68.1456582,6.42363071 67.4390825,8.24609199 67.4390825,11.0538054 C67.4390825,11.2032408 67.5011465,11.2631077 67.684713,11.2631077 L67.684713,11.2631077 L70.1739604,11.1730753 C70.5432417,11.0538054 70.7587951,10.2769274 70.7587951,8.96263902 C70.7587951,7.31977859 70.2976111,6.42363071 69.2828633,6.42363071 Z" id="Combined-Shape"></path>
        </g>
    </g>
</svg>